<!-- Generated by readme-aura https://github.com/collectioneur/readme-aura -->
<svg width="860" height="200" viewBox="0 0 860 200" xmlns="http://www.w3.org/2000/svg"><defs><clipPath id="satori_bc-id"><path x="0" y="0" width="860" height="200" d="M16,0 h828 a16,16 0 0 1 16,16 v168 a16,16 0 0 1 -16,16 h-828 a16,16 0 0 1 -16,-16 v-168 a16,16 0 0 1 16,-16"/></clipPath></defs><clipPath id="satori_cp-id"><path x="0" y="0" width="860" height="200" d="M16,0 h828 a16,16 0 0 1 16,16 v168 a16,16 0 0 1 -16,16 h-828 a16,16 0 0 1 -16,-16 v-168 a16,16 0 0 1 16,-16"/></clipPath><mask id="satori_om-id"><rect x="1" y="1" width="858" height="198" fill="#fff"/><path width="860" height="200" fill="none" stroke="#000" stroke-width="2" d="M4.686,4.686 A16,16 0 0 1 16,0 h828 a16,16 0 0 1 16,16 v168 a16,16 0 0 1 -16,16 h-828 a16,16 0 0 1 -16,-16 v-168 A16,16 0 0 1 4.686,4.686"/></mask><path x="0" y="0" width="860" height="200" fill="#08080c" d="M16,0 h828 a16,16 0 0 1 16,16 v168 a16,16 0 0 1 -16,16 h-828 a16,16 0 0 1 -16,-16 v-168 a16,16 0 0 1 16,-16"/><path width="860" height="200" clip-path="url(#satori_bc-id)" fill="none" stroke="rgba(110,80,220,0.18)" stroke-width="2" d="M4.686,4.686 A16,16 0 0 1 16,0 h828 a16,16 0 0 1 16,16 v168 a16,16 0 0 1 -16,16 h-828 a16,16 0 0 1 -16,-16 v-168 A16,16 0 0 1 4.686,4.686"/><clipPath id="satori_cp-id-0" clip-path="url(#satori_cp-id)"><rect x="1" y="1" width="860" height="200"/></clipPath><mask id="satori_om-id-0"><rect x="1" y="1" width="860" height="200" fill="#fff" mask="url(#satori_om-id)"/></mask><svg x="1" y="1" width="860" height="200" preserveAspectRatio="none" clip-path="url(#satori_cp-id-0)" mask="url(#satori_om-id-0)"><defs><radialGradient id="g1" cx="50%" cy="50%" r="50%"><stop offset="0%" stop-color="rgba(110,20,210,0.72)"></stop><stop offset="40%" stop-color="rgba(90,15,180,0.35)"></stop><stop offset="70%" stop-color="rgba(90,15,180,0)"></stop></radialGradient><radialGradient id="g2" cx="50%" cy="50%" r="50%"><stop offset="0%" stop-color="rgba(40,60,255,0.6)"></stop><stop offset="45%" stop-color="rgba(30,50,200,0.25)"></stop><stop offset="70%" stop-color="rgba(30,50,200,0)"></stop></radialGradient><radialGradient id="g3" cx="50%" cy="50%" r="50%"><stop offset="0%" stop-color="rgba(0,130,255,0.45)"></stop><stop offset="50%" stop-color="rgba(0,100,220,0.18)"></stop><stop offset="70%" stop-color="rgba(0,100,220,0)"></stop></radialGradient><radialGradient id="g4" cx="50%" cy="50%" r="50%"><stop offset="0%" stop-color="rgba(0,190,230,0.32)"></stop><stop offset="70%" stop-color="rgba(0,190,230,0)"></stop></radialGradient><radialGradient id="g5" cx="50%" cy="50%" r="50%"><stop offset="0%" stop-color="rgba(90,30,200,0.38)"></stop><stop offset="70%" stop-color="rgba(90,30,200,0)"></stop></radialGradient><radialGradient id="g6" cx="50%" cy="50%" r="50%"><stop offset="0%" stop-color="rgba(160,30,255,0.55)"></stop><stop offset="45%" stop-color="rgba(130,20,220,0.22)"></stop><stop offset="70%" stop-color="rgba(130,20,220,0)"></stop></radialGradient><radialGradient id="g7" cx="50%" cy="50%" r="50%"><stop offset="0%" stop-color="rgba(20,60,255,0.42)"></stop><stop offset="50%" stop-color="rgba(10,40,200,0.16)"></stop><stop offset="70%" stop-color="rgba(10,40,200,0)"></stop></radialGradient><radialGradient id="g8" cx="50%" cy="50%" r="50%"><stop offset="0%" stop-color="rgba(0,170,255,0.40)"></stop><stop offset="50%" stop-color="rgba(0,130,220,0.15)"></stop><stop offset="70%" stop-color="rgba(0,130,220,0)"></stop></radialGradient></defs><ellipse id="glow-1" cx="180" cy="230" rx="260" ry="190" fill="url(#g1)"></ellipse><ellipse id="glow-2" cx="300" cy="240" rx="220" ry="160" fill="url(#g2)"></ellipse><ellipse id="glow-3" cx="420" cy="240" rx="180" ry="140" fill="url(#g3)"></ellipse><ellipse id="glow-4" cx="550" cy="250" rx="150" ry="120" fill="url(#g4)"></ellipse><ellipse id="glow-5" cx="750" cy="250" rx="130" ry="110" fill="url(#g5)"></ellipse><ellipse id="glow-6" cx="300" cy="240" rx="180" ry="140" fill="url(#g6)"></ellipse><ellipse id="glow-7" cx="490" cy="230" rx="220" ry="170" fill="url(#g7)"></ellipse><ellipse id="glow-8" cx="590" cy="250" rx="150" ry="130" fill="url(#g8)"></ellipse><style>

      @keyframes float-slow {
        0%, 100% { transform: translateX(0px); opacity: 0.8; }
        50% { transform: translateX(350px); opacity: 1.2; }
      }
      @keyframes float-medium {
        0%, 100% { transform: translateX(0px); opacity: 0.7; }
        50% { transform: translateX(-250px); opacity: 1.1; }
      }
      @keyframes float-fast {
        0%, 100% { transform: translateX(0px); opacity: 0.9; }
        50% { transform: translateX(200px); opacity: 0.6; }
      }
      @keyframes float-diagonal {
        0%, 100% { transform: translateX(0px); opacity: 0.75; }
        50% { transform: translateX(300px); opacity: 1.0; }
      }
      @keyframes float-wave {
        0%, 100% { transform: translateX(0px); opacity: 0.65; }
        33% { transform: translateX(-160px); opacity: 0.9; }
        66% { transform: translateX(80px); opacity: 1.0; }
      }
      @keyframes float-pulse {
        0%, 100% { transform: scale(1); opacity: 0.8; }
        50% { transform: scale(1.3); opacity: 0.4; }
      }
      #glow-1 { animation: float-slow 8s ease-in-out infinite; }
      #glow-2 { animation: float-medium 12s ease-in-out infinite; }
      #glow-3 { animation: float-fast 9s ease-in-out infinite; }
      #glow-4 { animation: float-slow 11s ease-in-out infinite reverse; }
      #glow-5 { animation: float-medium 14s ease-in-out infinite reverse; }
      #glow-6 { animation: float-diagonal 10s ease-in-out infinite; }
      #glow-7 { animation: float-wave 13s ease-in-out infinite; }
      #glow-8 { animation: float-pulse 7s ease-in-out infinite; }
    
</style>
</svg><mask id="satori_om-id-0-0"><rect x="1" y="1" width="0" height="200" fill="#fff" mask="url(#satori_om-id)"/></mask><mask id="satori_om-id-0-0-0"><rect x="1" y="1" width="0" height="200" fill="#fff" mask="url(#satori_om-id)"/></mask><mask id="satori_om-id-0-0-0-0"><rect x="1" y="1" width="0" height="200" fill="#fff" mask="url(#satori_om-id)"/></mask><mask id="satori_om-id-0-0-0-1"><rect x="1" y="1" width="0" height="200" fill="#fff" mask="url(#satori_om-id)"/></mask><mask id="satori_om-id-0-0-0-2"><rect x="1" y="1" width="0" height="200" fill="#fff" mask="url(#satori_om-id)"/></mask><mask id="satori_om-id-0-0-1"><rect x="1" y="1" width="0" height="200" fill="#fff" mask="url(#satori_om-id)"/></mask><mask id="satori_om-id-0-0-1-0"><rect x="1" y="1" width="0" height="200" fill="#fff" mask="url(#satori_om-id)"/></mask><mask id="satori_om-id-0-0-1-1"><rect x="1" y="1" width="0" height="200" fill="#fff" mask="url(#satori_om-id)"/></mask><mask id="satori_om-id-0-0-1-2"><rect x="1" y="1" width="0" height="200" fill="#fff" mask="url(#satori_om-id)"/></mask><mask id="satori_om-id-0-0-2"><rect x="1" y="1" width="0" height="200" fill="#fff" mask="url(#satori_om-id)"/></mask><mask id="satori_om-id-0-0-2-0"><rect x="1" y="1" width="0" height="200" fill="#fff" mask="url(#satori_om-id)"/></mask><mask id="satori_om-id-0-0-2-1"><rect x="1" y="1" width="0" height="200" fill="#fff" mask="url(#satori_om-id)"/></mask><mask id="satori_om-id-0-0-2-2"><rect x="1" y="1" width="0" height="200" fill="#fff" mask="url(#satori_om-id)"/></mask><mask id="satori_om-id-0-0-3"><rect x="1" y="1" width="0" height="200" fill="#fff" mask="url(#satori_om-id)"/></mask><mask id="satori_om-id-0-0-3-0"><rect x="1" y="1" width="0" height="200" fill="#fff" mask="url(#satori_om-id)"/></mask><mask id="satori_om-id-0-0-3-1"><rect x="1" y="1" width="0" height="200" fill="#fff" mask="url(#satori_om-id)"/></mask><mask id="satori_om-id-0-0-4"><rect x="1" y="1" width="0" height="200" fill="#fff" mask="url(#satori_om-id)"/></mask><mask id="satori_om-id-0-0-4-0"><rect x="1" y="1" width="0" height="200" fill="#fff" mask="url(#satori_om-id)"/></mask><mask id="satori_om-id-0-0-4-1"><rect x="1" y="1" width="0" height="200" fill="#fff" mask="url(#satori_om-id)"/></mask><mask id="satori_om-id-0-0-5"><rect x="1" y="1" width="0" height="200" fill="#fff" mask="url(#satori_om-id)"/></mask><mask id="satori_om-id-0-0-5-0"><rect x="1" y="1" width="0" height="200" fill="#fff" mask="url(#satori_om-id)"/></mask><mask id="satori_om-id-0-0-5-1"><rect x="1" y="1" width="0" height="200" fill="#fff" mask="url(#satori_om-id)"/></mask><mask id="satori_om-id-0-0-5-2"><rect x="1" y="1" width="0" height="200" fill="#fff" mask="url(#satori_om-id)"/></mask><mask id="satori_om-id-0-0-6"><rect x="1" y="1" width="0" height="200" fill="#fff" mask="url(#satori_om-id)"/></mask><mask id="satori_om-id-0-0-6-0"><rect x="1" y="1" width="0" height="200" fill="#fff" mask="url(#satori_om-id)"/></mask><mask id="satori_om-id-0-0-6-1"><rect x="1" y="1" width="0" height="200" fill="#fff" mask="url(#satori_om-id)"/></mask><mask id="satori_om-id-0-0-6-2"><rect x="1" y="1" width="0" height="200" fill="#fff" mask="url(#satori_om-id)"/></mask><mask id="satori_om-id-0-0-7"><rect x="1" y="1" width="0" height="200" fill="#fff" mask="url(#satori_om-id)"/></mask><mask id="satori_om-id-0-0-7-0"><rect x="1" y="1" width="0" height="200" fill="#fff" mask="url(#satori_om-id)"/></mask><mask id="satori_om-id-0-0-7-1"><rect x="1" y="1" width="0" height="200" fill="#fff" mask="url(#satori_om-id)"/></mask><mask id="satori_om-id-0-0-7-2"><rect x="1" y="1" width="0" height="200" fill="#fff" mask="url(#satori_om-id)"/></mask><mask id="satori_om-id-0-1"><rect x="1" y="1" width="0" height="200" fill="#fff" mask="url(#satori_om-id)"/></mask><mask id="satori_om-id-0-2"><rect x="1" y="1" width="0" height="200" fill="#fff" mask="url(#satori_om-id)"/></mask><mask id="satori_om-id-0-3"><rect x="1" y="1" width="0" height="200" fill="#fff" mask="url(#satori_om-id)"/></mask><mask id="satori_om-id-0-4"><rect x="1" y="1" width="0" height="200" fill="#fff" mask="url(#satori_om-id)"/></mask><mask id="satori_om-id-0-5"><rect x="1" y="1" width="0" height="200" fill="#fff" mask="url(#satori_om-id)"/></mask><mask id="satori_om-id-0-6"><rect x="1" y="1" width="0" height="200" fill="#fff" mask="url(#satori_om-id)"/></mask><mask id="satori_om-id-0-7"><rect x="1" y="1" width="0" height="200" fill="#fff" mask="url(#satori_om-id)"/></mask><mask id="satori_om-id-0-8"><rect x="1" y="1" width="0" height="200" fill="#fff" mask="url(#satori_om-id)"/></mask><defs><pattern id="satori_pattern_id-1_0" x="0" y="0" width="1" height="1" patternUnits="objectBoundingBox"><linearGradient id="satori_biid-1_0" x1="-4.810966440042345e-16" y1="4.810966440042355e-16" x2="1.0000000000000004" y2="0.9999999999999994" spreadMethod="pad"><stop offset="0%" stop-color="#6622ee"/><stop offset="100%" stop-color="#0088ff"/></linearGradient><rect x="0" y="0" width="96" height="96" fill="url(#satori_biid-1_0)"/></pattern></defs><mask id="satori_om-id-1"><rect x="49" y="53" width="96" height="96" fill="#fff" mask="url(#satori_om-id)"/></mask><path x="49" y="53" width="96" height="96" fill="url(#satori_pattern_id-1_0)" d="M97,53 h0 a48,48 0 0 1 48,48 v0 a48,48 0 0 1 -48,48 h0 a48,48 0 0 1 -48,-48 v0 a48,48 0 0 1 48,-48" clip-path="url(#satori_cp-id)" mask="url(#satori_om-id)"/><mask id="satori_om-id-1-0"><rect x="53" y="57" width="88" height="88" fill="#fff" mask="url(#satori_om-id)"/></mask><mask id="satori_om-id-2"><rect x="169" y="49" width="326" height="103" fill="#fff" mask="url(#satori_om-id)"/></mask><mask id="satori_om-id-2-0"><rect x="169" y="49" width="326" height="38" fill="#fff" mask="url(#satori_om-id)"/></mask><g mask="url(#satori_om-id)" clip-path="url(#satori_cp-id)"><path fill="#ffffff" d="M171.4 83.0L171.4 61.3L176.9 61.3L176.9 83.1Q176.9 85.4 176.0 86.9Q175.1 88.4 173.4 89.1Q171.6 89.8 169.2 89.8L169.2 89.8L168.1 89.8L168.1 85.4L168.8 85.4Q170.2 85.4 170.8 84.8Q171.4 84.2 171.4 83.0L171.4 83.0ZM174.2 58.5L174.2 58.5Q172.9 58.5 172.0 57.7Q171.1 56.9 171.1 55.7L171.1 55.7Q171.1 54.5 172.0 53.7Q172.9 52.8 174.2 52.8L174.2 52.8Q175.4 52.8 176.3 53.7Q177.2 54.5 177.2 55.7L177.2 55.7Q177.2 56.9 176.3 57.7Q175.4 58.5 174.2 58.5ZM190.0 82.4L190.0 82.4Q186.9 82.4 184.6 81.1Q182.3 79.8 181.0 77.4Q179.8 75.0 179.8 71.7L179.8 71.7Q179.8 68.5 181.0 66.1Q182.3 63.7 184.5 62.4Q186.7 61.0 189.8 61.0L189.8 61.0Q191.8 61.0 193.6 61.6Q195.3 62.3 196.7 63.6Q198.0 64.9 198.8 66.9Q199.5 68.8 199.5 71.5L199.5 71.5L199.5 73.1L185.3 73.1Q185.4 74.7 185.9 75.8L185.9 75.8Q186.5 77.0 187.6 77.6Q188.7 78.2 190.1 78.2L190.1 78.2Q191.1 78.2 191.9 77.9Q192.7 77.7 193.3 77.1Q193.8 76.6 194.1 75.8L194.1 75.8L199.2 76.7Q198.7 78.4 197.4 79.7Q196.2 81.0 194.3 81.7Q192.5 82.4 190.0 82.4ZM185.3 69.6L185.3 69.6L194.1 69.6Q194.0 68.5 193.7 67.7L193.7 67.7Q193.2 66.5 192.2 65.8Q191.2 65.2 189.8 65.2L189.8 65.2Q188.4 65.2 187.4 65.9Q186.4 66.5 185.8 67.7L185.8 67.7Q185.4 68.5 185.3 69.6ZM208.1 82.4L208.1 82.4Q206.1 82.4 204.6 81.7Q203.0 81.0 202.1 79.6Q201.2 78.3 201.2 76.2L201.2 76.2Q201.2 74.5 201.8 73.3Q202.5 72.1 203.6 71.4Q204.7 70.7 206.1 70.3Q207.5 70.0 209.0 69.8L209.0 69.8Q210.8 69.6 211.9 69.5Q213.0 69.3 213.5 69.0Q214.1 68.6 214.1 68.0L214.1 68.0L214.1 67.9Q214.1 67.0 213.7 66.4Q213.3 65.8 212.6 65.4Q211.8 65.1 210.8 65.1L210.8 65.1Q209.7 65.1 208.9 65.4Q208.1 65.8 207.6 66.3Q207.1 66.8 206.9 67.5L206.9 67.5L201.8 66.7Q202.3 64.9 203.6 63.6Q204.8 62.3 206.7 61.7Q208.5 61.0 210.8 61.0L210.8 61.0Q212.5 61.0 214.1 61.4Q215.7 61.8 216.9 62.6Q218.2 63.5 218.9 64.8Q219.6 66.2 219.6 68.0L219.6 68.0L219.6 82L214.4 82L214.4 79.1L214.2 79.1Q213.7 80.1 212.8 80.8Q212.0 81.6 210.8 82.0Q209.6 82.4 208.1 82.4ZM209.7 78.5L209.7 78.5Q211.0 78.5 212.0 78.0Q213.0 77.5 213.5 76.6Q214.1 75.7 214.1 74.6L214.1 74.6L214.1 72.3Q213.9 72.5 213.3 72.7Q212.8 72.8 212.2 72.9Q211.6 73.0 211.0 73.1Q210.4 73.2 210.0 73.3L210.0 73.3Q209.0 73.4 208.2 73.8Q207.4 74.1 207.0 74.6Q206.5 75.2 206.5 76.0L206.5 76.0Q206.5 76.8 206.9 77.4Q207.4 77.9 208.1 78.2Q208.8 78.5 209.7 78.5ZM228.9 70.0L228.9 70.0L228.9 82L223.4 82L223.4 61.3L228.6 61.3L228.7 65.5Q229.5 63.6 230.9 62.4L230.9 62.4Q232.5 61.0 235.2 61.0L235.2 61.0Q237.3 61.0 238.9 61.9Q240.5 62.9 241.4 64.6Q242.3 66.4 242.3 68.8L242.3 68.8L242.3 82L236.7 82L236.7 69.8Q236.7 67.8 235.7 66.7Q234.7 65.7 233.0 65.7L233.0 65.7Q231.8 65.7 230.9 66.2Q230.0 66.7 229.4 67.6Q228.9 68.6 228.9 70.0ZM251.6 89.8L246.0 89.8L246.0 61.3L251.5 61.3L251.5 64.7L251.8 64.7Q252.2 63.9 252.9 63.1Q253.6 62.2 254.7 61.6Q255.9 61.0 257.7 61.0L257.7 61.0Q260.0 61.0 261.9 62.2Q263.8 63.4 264.9 65.7Q266.1 68.1 266.1 71.7L266.1 71.7Q266.1 75.1 265.0 77.5Q263.9 79.9 261.9 81.1Q260.0 82.4 257.6 82.4L257.6 82.4Q256.0 82.4 254.8 81.8Q253.6 81.2 252.9 80.4Q252.2 79.5 251.8 78.7L251.8 78.7L251.6 78.7L251.6 89.8ZM255.9 77.9L255.9 77.9Q257.4 77.9 258.4 77.1Q259.4 76.3 259.9 74.9Q260.4 73.5 260.4 71.6L260.4 71.6Q260.4 69.8 259.9 68.4Q259.4 67.0 258.4 66.2Q257.4 65.4 255.9 65.4L255.9 65.4Q254.5 65.4 253.5 66.2Q252.5 67.0 252.0 68.4Q251.5 69.8 251.5 71.6L251.5 71.6Q251.5 73.5 252.0 74.9Q252.5 76.3 253.5 77.1Q254.5 77.9 255.9 77.9ZM274.8 82.4L274.8 82.4Q272.8 82.4 271.2 81.7Q269.7 81.0 268.8 79.6Q267.9 78.3 267.9 76.2L267.9 76.2Q267.9 74.5 268.5 73.3Q269.1 72.1 270.3 71.4Q271.4 70.7 272.8 70.3Q274.2 70.0 275.7 69.8L275.7 69.8Q277.5 69.6 278.6 69.5Q279.7 69.3 280.2 69.0Q280.7 68.6 280.7 68.0L280.7 68.0L280.7 67.9Q280.7 67.0 280.4 66.4Q280.0 65.8 279.3 65.4Q278.5 65.1 277.5 65.1L277.5 65.1Q276.4 65.1 275.6 65.4Q274.8 65.8 274.3 66.3Q273.8 66.8 273.6 67.5L273.6 67.5L268.5 66.7Q269.0 64.9 270.2 63.6Q271.5 62.3 273.3 61.7Q275.2 61.0 277.5 61.0L277.5 61.0Q279.2 61.0 280.7 61.4Q282.3 61.8 283.6 62.6Q284.8 63.5 285.6 64.8Q286.3 66.2 286.3 68.0L286.3 68.0L286.3 82L281.0 82L281.0 79.1L280.8 79.1Q280.3 80.1 279.5 80.8Q278.7 81.6 277.5 82.0Q276.3 82.4 274.8 82.4ZM276.3 78.5L276.3 78.5Q277.7 78.5 278.7 78.0Q279.7 77.5 280.2 76.6Q280.8 75.7 280.8 74.6L280.8 74.6L280.8 72.3Q280.5 72.5 280.0 72.7Q279.5 72.8 278.9 72.9Q278.3 73.0 277.7 73.1Q277.1 73.2 276.6 73.3L276.6 73.3Q275.6 73.4 274.8 73.8Q274.1 74.1 273.6 74.6Q273.2 75.2 273.2 76.0L273.2 76.0Q273.2 76.8 273.6 77.4Q274.0 77.9 274.7 78.2Q275.4 78.5 276.3 78.5ZM296.5 61.3L300.3 61.3L300.3 65.5L296.5 65.5L296.5 75.9Q296.5 76.9 296.9 77.4Q297.3 77.9 298.4 77.9L298.4 77.9Q298.7 77.9 299.2 77.8Q299.8 77.7 300.1 77.6L300.1 77.6L300.9 81.8Q300.0 82.1 299.1 82.2Q298.2 82.3 297.3 82.3L297.3 82.3Q294.2 82.3 292.5 80.8Q290.9 79.3 290.9 76.4L290.9 76.4L290.9 65.5L288.0 65.5L288.0 61.3L290.9 61.3L290.9 56.3L296.5 56.3L296.5 61.3ZM308.5 82L303.0 82L303.0 61.3L308.3 61.3L308.3 64.9L308.6 64.9Q309.1 62.9 310.5 62.0Q311.8 61.0 313.6 61.0L313.6 61.0Q314 61.0 314.5 61.0Q315.0 61.1 315.4 61.2L315.4 61.2L315.4 66.1Q315.0 66.0 314.3 65.9Q313.6 65.9 313.0 65.9L313.0 65.9Q311.7 65.9 310.7 66.4Q309.7 67.0 309.1 67.9Q308.5 68.9 308.5 70.2L308.5 70.2L308.5 82ZM323.0 82L317.4 82L317.4 61.3L323.0 61.3L323.0 82ZM320.2 58.5L320.2 58.5Q319.0 58.5 318.1 57.7Q317.2 56.9 317.2 55.7L317.2 55.7Q317.2 54.5 318.1 53.7Q319.0 52.8 320.2 52.8L320.2 52.8Q321.5 52.8 322.4 53.7Q323.3 54.5 323.3 55.7L323.3 55.7Q323.3 56.9 322.4 57.7Q321.5 58.5 320.2 58.5ZM336.0 82.4L336.0 82.4Q332.9 82.4 330.6 81.1Q328.3 79.7 327.1 77.3Q325.9 74.9 325.9 71.7L325.9 71.7Q325.9 68.5 327.1 66.1Q328.3 63.7 330.6 62.3Q332.9 61.0 336.0 61.0L336.0 61.0Q337.8 61.0 339.4 61.5Q341.0 62.0 342.2 62.9Q343.4 63.7 344.2 65.0Q344.9 66.3 345.2 67.9L345.2 67.9L340.1 68.9Q339.9 68.0 339.5 67.4Q339.2 66.8 338.7 66.3Q338.2 65.9 337.5 65.6Q336.9 65.4 336.1 65.4L336.1 65.4Q334.6 65.4 333.6 66.2Q332.6 67.0 332.0 68.4Q331.5 69.8 331.5 71.7L331.5 71.7Q331.5 73.5 332.0 75.0Q332.6 76.4 333.6 77.2Q334.6 78.0 336.1 78.0L336.1 78.0Q336.9 78.0 337.5 77.8Q338.2 77.5 338.7 77.1Q339.2 76.6 339.6 75.9Q339.9 75.2 340.1 74.4L340.1 74.4L345.3 75.4Q345.0 77.0 344.2 78.3Q343.4 79.6 342.2 80.5Q341.0 81.4 339.4 81.9Q337.9 82.4 336.0 82.4ZM353.7 82L348.1 82L348.1 54.4L353.7 54.4L353.7 69.2L354.0 69.2L360.8 61.3L367.2 61.3L359.4 70.3L367.6 82L361.0 82L355.3 73.6L353.7 75.3L353.7 82ZM374.7 82L369.1 82L369.1 61.3L374.3 61.3L374.5 65.3Q374.9 64.1 375.6 63.3L375.6 63.3Q376.5 62.1 377.8 61.5Q379.0 60.9 380.4 60.9L380.4 60.9Q382.7 60.9 384.1 62.4L384.1 62.4Q385.1 63.5 385.8 65.6L385.8 65.6Q386.2 64.4 386.9 63.5L386.9 63.5Q388.0 62.2 389.4 61.6Q390.9 60.9 392.4 60.9L392.4 60.9Q394.3 60.9 395.8 61.8Q397.3 62.6 398.2 64.2Q399.1 65.7 399.1 68.0L399.1 68.0L399.1 82L393.5 82L393.5 69.1Q393.5 67.3 392.5 66.5Q391.6 65.6 390.2 65.6L390.2 65.6Q389.2 65.6 388.4 66.1Q387.6 66.5 387.2 67.3Q386.8 68.1 386.8 69.2L386.8 69.2L386.8 82L381.4 82L381.4 68.9Q381.4 67.4 380.5 66.5Q379.6 65.6 378.2 65.6L378.2 65.6Q377.2 65.6 376.4 66.0Q375.6 66.5 375.2 67.4Q374.7 68.2 374.7 69.5L374.7 69.5L374.7 82Z "/></g><mask id="satori_om-id-2-1"><rect x="169" y="95" width="326" height="18" fill="#fff" mask="url(#satori_om-id)"/></mask><g mask="url(#satori_om-id)" clip-path="url(#satori_cp-id)"><path fill="rgba(180,165,255,0.8)" d="M170.9 110L169.4 110L173.3 99.1L175.0 99.1L179.0 110L177.5 110L176.4 107.0L171.9 107.0L170.9 110ZM172.3 105.7L176.0 105.7L175.2 103.5Q175.0 102.9 174.7 102.0L174.7 102.0Q174.5 101.3 174.1 100.2L174.1 100.2Q173.8 101.3 173.6 102.1L173.6 102.1Q173.3 103.0 173.1 103.5L173.1 103.5L172.3 105.7Z M186.6 113.1L185.3 113.1L185.3 101.8L186.6 101.8L186.6 103.1L186.7 103.1Q186.9 102.9 187.1 102.6Q187.4 102.2 187.9 102.0Q188.3 101.7 189.1 101.7L189.1 101.7Q190.1 101.7 190.9 102.2Q191.7 102.7 192.1 103.7Q192.6 104.6 192.6 105.9L192.6 105.9Q192.6 107.2 192.2 108.2Q191.7 109.1 190.9 109.7Q190.2 110.2 189.1 110.2L189.1 110.2Q188.3 110.2 187.9 109.9Q187.4 109.6 187.1 109.3Q186.9 109.0 186.7 108.7L186.7 108.7L186.6 108.7L186.6 113.1ZM188.9 109.0L188.9 109.0Q189.7 109.0 190.2 108.6Q190.7 108.2 191.0 107.5Q191.3 106.8 191.3 105.9L191.3 105.9Q191.3 105.1 191.0 104.4Q190.7 103.7 190.2 103.3Q189.7 102.9 188.9 102.9L188.9 102.9Q188.2 102.9 187.7 103.3Q187.1 103.6 186.9 104.3Q186.6 105.0 186.6 105.9L186.6 105.9Q186.6 106.8 186.9 107.5Q187.2 108.2 187.7 108.6Q188.2 109.0 188.9 109.0ZM197.1 110.2L197.1 110.2Q196.3 110.2 195.7 109.9Q195.1 109.6 194.7 109.0Q194.3 108.5 194.3 107.7L194.3 107.7Q194.3 107.0 194.6 106.5Q194.9 106.1 195.3 105.8Q195.8 105.6 196.4 105.5Q196.9 105.3 197.5 105.3L197.5 105.3Q198.2 105.2 198.7 105.1Q199.2 105.1 199.4 104.9Q199.6 104.8 199.6 104.5L199.6 104.5L199.6 104.5Q199.6 104.0 199.4 103.6Q199.2 103.2 198.8 103.1Q198.5 102.9 197.9 102.9L197.9 102.9Q197.3 102.9 196.9 103.0Q196.5 103.2 196.2 103.5Q195.9 103.8 195.8 104.1L195.8 104.1L194.5 103.6Q194.9 102.9 195.4 102.5Q195.9 102.1 196.6 101.9Q197.2 101.7 197.8 101.7L197.8 101.7Q198.3 101.7 198.8 101.8Q199.3 101.9 199.8 102.2Q200.3 102.5 200.6 103.1Q200.9 103.6 200.9 104.6L200.9 104.6L200.9 110L199.6 110L199.6 108.9L199.5 108.9Q199.4 109.2 199.1 109.5Q198.8 109.8 198.3 110.0Q197.8 110.2 197.1 110.2ZM197.3 109.0L197.3 109.0Q198.1 109.0 198.6 108.7Q199.1 108.5 199.3 108.0Q199.6 107.5 199.6 107.0L199.6 107.0L199.6 105.9Q199.5 106.0 199.2 106.1Q199.0 106.2 198.6 106.2Q198.3 106.3 198.0 106.3Q197.6 106.4 197.4 106.4L197.4 106.4Q197.0 106.4 196.5 106.6Q196.1 106.7 195.9 107.0Q195.6 107.3 195.6 107.7L195.6 107.7Q195.6 108.2 195.9 108.4Q196.1 108.7 196.5 108.9Q196.8 109.0 197.3 109.0ZM206.3 110.2L206.3 110.2Q205.5 110.2 204.8 109.9Q204.2 109.7 203.7 109.2Q203.3 108.7 203.2 108.0L203.2 108.0L204.4 107.7Q204.6 108.4 205.1 108.7Q205.6 109.0 206.3 109.0L206.3 109.0Q207.2 109.0 207.7 108.7Q208.2 108.3 208.2 107.8L208.2 107.8Q208.2 107.4 207.9 107.1Q207.6 106.8 207.0 106.7L207.0 106.7L205.6 106.3Q204.5 106.1 204.0 105.5Q203.4 105.0 203.4 104.1L203.4 104.1Q203.4 103.4 203.8 102.9Q204.2 102.3 204.9 102.0Q205.6 101.7 206.4 101.7L206.4 101.7Q207.3 101.7 207.9 102.0Q208.5 102.2 208.8 102.7Q209.2 103.1 209.4 103.7L209.4 103.7L208.2 104.0Q208.0 103.5 207.6 103.2Q207.2 102.8 206.5 102.8L206.5 102.8Q205.7 102.8 205.2 103.2Q204.7 103.5 204.7 104.0L204.7 104.0Q204.7 104.5 205.1 104.7Q205.4 105.0 206.1 105.2L206.1 105.2L207.4 105.5Q208.5 105.7 209.0 106.3Q209.5 106.9 209.5 107.7L209.5 107.7Q209.5 108.4 209.1 109.0Q208.7 109.5 208.0 109.9Q207.3 110.2 206.3 110.2ZM214.5 110.2L214.5 110.2Q213.7 110.2 213.0 109.9Q212.4 109.7 212.0 109.2Q211.5 108.7 211.4 108.0L211.4 108.0L212.6 107.7Q212.8 108.4 213.3 108.7Q213.8 109.0 214.5 109.0L214.5 109.0Q215.4 109.0 215.9 108.7Q216.4 108.3 216.4 107.8L216.4 107.8Q216.4 107.4 216.1 107.1Q215.8 106.8 215.2 106.7L215.2 106.7L213.8 106.3Q212.7 106.1 212.2 105.5Q211.6 105.0 211.6 104.1L211.6 104.1Q211.6 103.4 212.0 102.9Q212.4 102.3 213.1 102.0Q213.8 101.7 214.7 101.7L214.7 101.7Q215.5 101.7 216.1 102.0Q216.7 102.2 217.1 102.7Q217.4 103.1 217.6 103.7L217.6 103.7L216.4 104.0Q216.2 103.5 215.9 103.2Q215.5 102.8 214.7 102.8L214.7 102.8Q213.9 102.8 213.5 103.2Q213.0 103.5 213.0 104.0L213.0 104.0Q213.0 104.5 213.3 104.7Q213.6 105.0 214.3 105.2L214.3 105.2L215.6 105.5Q216.7 105.7 217.2 106.3Q217.8 106.9 217.8 107.7L217.8 107.7Q217.8 108.4 217.4 109.0Q217.0 109.5 216.2 109.9Q215.5 110.2 214.5 110.2ZM221.3 110L220.0 110L220.0 101.8L221.3 101.8L221.3 110ZM220.6 100.5L220.6 100.5Q220.3 100.5 220.0 100.2Q219.7 100.0 219.7 99.6L219.7 99.6Q219.7 99.2 220.0 99.0Q220.3 98.7 220.6 98.7L220.6 98.7Q221.0 98.7 221.3 99.0Q221.6 99.2 221.6 99.6L221.6 99.6Q221.6 100.0 221.3 100.2Q221.0 100.5 220.6 100.5ZM227.2 110.2L227.2 110.2Q226.1 110.2 225.3 109.6Q224.4 109.1 224.0 108.2Q223.5 107.2 223.5 106.0L223.5 106.0Q223.5 104.7 224.0 103.7Q224.4 102.8 225.3 102.2Q226.1 101.7 227.2 101.7L227.2 101.7Q228.4 101.7 229.2 102.2Q230.0 102.8 230.5 103.7Q231.0 104.7 231.0 106.0L231.0 106.0Q231.0 107.2 230.5 108.2Q230.0 109.1 229.2 109.6Q228.4 110.2 227.2 110.2ZM227.2 109.0L227.2 109.0Q228.1 109.0 228.6 108.6Q229.1 108.1 229.4 107.5Q229.6 106.8 229.6 106.0L229.6 106.0Q229.6 105.1 229.4 104.4Q229.1 103.7 228.6 103.3Q228.1 102.9 227.2 102.9L227.2 102.9Q226.4 102.9 225.9 103.3Q225.4 103.7 225.1 104.4Q224.8 105.1 224.8 106.0L224.8 106.0Q224.8 106.8 225.1 107.5Q225.4 108.1 225.9 108.6Q226.4 109.0 227.2 109.0ZM234.5 105.1L234.5 105.1L234.5 110L233.2 110L233.2 101.8L234.5 101.8L234.5 103.3Q234.8 102.6 235.4 102.2L235.4 102.2Q236.0 101.7 237.0 101.7L237.0 101.7Q237.8 101.7 238.4 102.0Q239.0 102.4 239.4 103.1Q239.7 103.8 239.7 104.8L239.7 104.8L239.7 110L238.4 110L238.4 104.9Q238.4 104.0 237.9 103.4Q237.4 102.9 236.6 102.9L236.6 102.9Q236.0 102.9 235.5 103.2Q235.1 103.4 234.8 103.9Q234.5 104.4 234.5 105.1ZM244.6 110.2L244.6 110.2Q243.9 110.2 243.2 109.9Q242.6 109.6 242.2 109.0Q241.9 108.5 241.9 107.7L241.9 107.7Q241.9 107.0 242.1 106.5Q242.4 106.1 242.9 105.8Q243.3 105.6 243.9 105.5Q244.5 105.3 245.0 105.3L245.0 105.3Q245.8 105.2 246.2 105.1Q246.7 105.1 246.9 104.9Q247.1 104.8 247.1 104.5L247.1 104.5L247.1 104.5Q247.1 104.0 247.0 103.6Q246.8 103.2 246.4 103.1Q246.0 102.9 245.4 102.9L245.4 102.9Q244.8 102.9 244.4 103.0Q244.0 103.2 243.8 103.5Q243.5 103.8 243.4 104.1L243.4 104.1L242.1 103.6Q242.4 102.9 242.9 102.5Q243.5 102.1 244.1 101.9Q244.8 101.7 245.4 101.7L245.4 101.7Q245.8 101.7 246.3 101.8Q246.9 101.9 247.3 102.2Q247.8 102.5 248.1 103.1Q248.5 103.6 248.5 104.6L248.5 104.6L248.5 110L247.2 110L247.2 108.9L247.1 108.9Q246.9 109.2 246.6 109.5Q246.3 109.8 245.8 110.0Q245.3 110.2 244.6 110.2ZM244.9 109.0L244.9 109.0Q245.6 109.0 246.1 108.7Q246.6 108.5 246.9 108.0Q247.1 107.5 247.1 107.0L247.1 107.0L247.1 105.9Q247.1 106.0 246.8 106.1Q246.5 106.2 246.2 106.2Q245.8 106.3 245.5 106.3Q245.2 106.4 245.0 106.4L245.0 106.4Q244.5 106.4 244.1 106.6Q243.7 106.7 243.4 107.0Q243.2 107.3 243.2 107.7L243.2 107.7Q243.2 108.2 243.4 108.4Q243.6 108.7 244.0 108.9Q244.4 109.0 244.9 109.0ZM252.6 101.8L254.3 101.8L254.3 102.9L252.6 102.9L252.6 107.9Q252.6 108.4 252.8 108.7Q253.1 108.9 253.6 108.9L253.6 108.9Q253.7 108.9 253.9 108.9Q254.1 108.9 254.3 108.8L254.3 108.8L254.5 110.0Q254.3 110.0 254.1 110.1Q253.8 110.1 253.5 110.1L253.5 110.1Q252.5 110.1 251.9 109.5Q251.3 109.0 251.3 108.0L251.3 108.0L251.3 102.9L250.1 102.9L250.1 101.8L251.3 101.8L251.3 99.9L252.6 99.9L252.6 101.8ZM259.7 110.2L259.7 110.2Q258.5 110.2 257.7 109.6Q256.8 109.1 256.4 108.2Q255.9 107.2 255.9 106.0Q255.9 104.7 256.3 103.8Q256.8 102.8 257.6 102.3Q258.5 101.7 259.6 101.7L259.6 101.7Q260.2 101.7 260.9 101.9Q261.5 102.1 262.0 102.6Q262.5 103.1 262.8 103.9Q263.1 104.7 263.1 105.8L263.1 105.8L263.1 106.4L257.2 106.4Q257.3 107.1 257.5 107.7L257.5 107.7Q257.9 108.4 258.4 108.7Q259.0 109.0 259.7 109.0L259.7 109.0Q260.2 109.0 260.6 108.9Q261.0 108.7 261.3 108.4Q261.6 108.2 261.7 107.7L261.7 107.7L263.0 108.1Q262.8 108.7 262.4 109.2Q261.9 109.6 261.2 109.9Q260.6 110.2 259.7 110.2ZM257.2 105.2L257.2 105.2L261.8 105.2Q261.8 104.7 261.6 104.2L261.6 104.2Q261.3 103.6 260.8 103.2Q260.3 102.9 259.6 102.9Q258.8 102.9 258.3 103.2Q257.8 103.6 257.5 104.2L257.5 104.2Q257.3 104.7 257.2 105.2Z M272.9 110.2L272.9 110.2Q271.9 110.2 271.1 109.7Q270.3 109.1 269.9 108.2Q269.5 107.2 269.5 105.9L269.5 105.9Q269.5 104.6 269.9 103.7Q270.3 102.7 271.1 102.2Q271.9 101.7 272.9 101.7L272.9 101.7Q273.7 101.7 274.2 102.0Q274.7 102.2 274.9 102.6Q275.2 102.9 275.3 103.1L275.3 103.1L275.4 103.1L275.4 99.1L276.7 99.1L276.7 110L275.4 110L275.4 108.7L275.3 108.7Q275.2 109.0 274.9 109.3Q274.6 109.6 274.2 109.9Q273.7 110.2 272.9 110.2ZM273.1 109.0L273.1 109.0Q273.9 109.0 274.4 108.6Q274.9 108.2 275.2 107.5Q275.4 106.8 275.4 105.9L275.4 105.9Q275.4 105.0 275.2 104.3Q274.9 103.6 274.4 103.3Q273.9 102.9 273.1 102.9L273.1 102.9Q272.3 102.9 271.8 103.3Q271.3 103.7 271.1 104.4Q270.8 105.1 270.8 105.9L270.8 105.9Q270.8 106.8 271.1 107.5Q271.3 108.2 271.8 108.6Q272.4 109.0 273.1 109.0ZM282.8 110.2L282.8 110.2Q281.6 110.2 280.7 109.6Q279.9 109.1 279.4 108.2Q278.9 107.2 278.9 106.0Q278.9 104.7 279.4 103.8Q279.8 102.8 280.7 102.3Q281.5 101.7 282.6 101.7L282.6 101.7Q283.3 101.7 283.9 101.9Q284.5 102.1 285.1 102.6Q285.6 103.1 285.9 103.9Q286.2 104.7 286.2 105.8L286.2 105.8L286.2 106.4L280.3 106.4Q280.3 107.1 280.6 107.7L280.6 107.7Q280.9 108.4 281.5 108.7Q282.0 109.0 282.8 109.0L282.8 109.0Q283.3 109.0 283.7 108.9Q284.1 108.7 284.3 108.4Q284.6 108.2 284.8 107.7L284.8 107.7L286.1 108.1Q285.9 108.7 285.4 109.2Q285.0 109.6 284.3 109.9Q283.6 110.2 282.8 110.2ZM280.3 105.2L280.3 105.2L284.9 105.2Q284.8 104.7 284.6 104.2L284.6 104.2Q284.4 103.6 283.9 103.2Q283.4 102.9 282.6 102.9Q281.9 102.9 281.4 103.2Q280.8 103.6 280.6 104.2L280.6 104.2Q280.3 104.7 280.3 105.2ZM292.1 110L290.7 110L287.6 101.8L289.1 101.8L290.8 106.7Q291.1 107.4 291.3 108.2L291.3 108.2Q291.4 108.5 291.4 108.8L291.4 108.8Q291.5 108.5 291.6 108.2L291.6 108.2Q291.8 107.4 292.1 106.7L292.1 106.7L293.8 101.8L295.3 101.8L292.1 110ZM300.6 110.2L300.6 110.2Q299.4 110.2 298.5 109.6Q297.6 109.1 297.2 108.2Q296.7 107.2 296.7 106.0Q296.7 104.7 297.2 103.8Q297.6 102.8 298.5 102.3Q299.3 101.7 300.4 101.7L300.4 101.7Q301.1 101.7 301.7 101.9Q302.3 102.1 302.8 102.6Q303.4 103.1 303.7 103.9Q304.0 104.7 304.0 105.8L304.0 105.8L304.0 106.4L298.0 106.4Q298.1 107.1 298.4 107.7L298.4 107.7Q298.7 108.4 299.2 108.7Q299.8 109.0 300.6 109.0L300.6 109.0Q301.0 109.0 301.4 108.9Q301.8 108.7 302.1 108.4Q302.4 108.2 302.6 107.7L302.6 107.7L303.8 108.1Q303.6 108.7 303.2 109.2Q302.7 109.6 302.1 109.9Q301.4 110.2 300.6 110.2ZM298.1 105.2L298.1 105.2L302.6 105.2Q302.6 104.7 302.4 104.2L302.4 104.2Q302.1 103.6 301.6 103.2Q301.1 102.9 300.4 102.9Q299.7 102.9 299.1 103.2Q298.6 103.6 298.3 104.2L298.3 104.2Q298.1 104.7 298.1 105.2ZM306.2 99.1L307.5 99.1L307.5 110L306.2 110L306.2 99.1ZM313.4 110.2L313.4 110.2Q312.3 110.2 311.5 109.6Q310.6 109.1 310.2 108.2Q309.7 107.2 309.7 106.0L309.7 106.0Q309.7 104.7 310.2 103.7Q310.6 102.8 311.5 102.2Q312.3 101.7 313.4 101.7L313.4 101.7Q314.5 101.7 315.4 102.2Q316.2 102.8 316.7 103.7Q317.2 104.7 317.2 106.0L317.2 106.0Q317.2 107.2 316.7 108.2Q316.2 109.1 315.4 109.6Q314.5 110.2 313.4 110.2ZM313.4 109.0L313.4 109.0Q314.2 109.0 314.8 108.6Q315.3 108.1 315.6 107.5Q315.8 106.8 315.8 106.0L315.8 106.0Q315.8 105.1 315.6 104.4Q315.3 103.7 314.8 103.3Q314.2 102.9 313.4 102.9L313.4 102.9Q312.6 102.9 312.1 103.3Q311.5 103.7 311.3 104.4Q311.0 105.1 311.0 106.0L311.0 106.0Q311.0 106.8 311.3 107.5Q311.5 108.1 312.1 108.6Q312.6 109.0 313.4 109.0ZM320.7 113.1L319.4 113.1L319.4 101.8L320.7 101.8L320.7 103.1L320.8 103.1Q320.9 102.9 321.2 102.6Q321.4 102.2 321.9 102.0Q322.4 101.7 323.2 101.7L323.2 101.7Q324.2 101.7 325.0 102.2Q325.8 102.7 326.2 103.7Q326.6 104.6 326.6 105.9L326.6 105.9Q326.6 107.2 326.2 108.2Q325.8 109.1 325.0 109.7Q324.2 110.2 323.2 110.2L323.2 110.2Q322.4 110.2 321.9 109.9Q321.5 109.6 321.2 109.3Q320.9 109.0 320.8 108.7L320.8 108.7L320.7 108.7L320.7 113.1ZM323.0 109.0L323.0 109.0Q323.8 109.0 324.3 108.6Q324.8 108.2 325.0 107.5Q325.3 106.8 325.3 105.9L325.3 105.9Q325.3 105.1 325.1 104.4Q324.8 103.7 324.3 103.3Q323.8 102.9 323.0 102.9L323.0 102.9Q322.2 102.9 321.7 103.3Q321.2 103.6 320.9 104.3Q320.7 105.0 320.7 105.9L320.7 105.9Q320.7 106.8 321.0 107.5Q321.2 108.2 321.7 108.6Q322.2 109.0 323.0 109.0ZM332.3 110.2L332.3 110.2Q331.1 110.2 330.3 109.6Q329.4 109.1 328.9 108.2Q328.5 107.2 328.5 106.0Q328.5 104.7 328.9 103.8Q329.4 102.8 330.2 102.3Q331.0 101.7 332.2 101.7L332.2 101.7Q332.8 101.7 333.4 101.9Q334.1 102.1 334.6 102.6Q335.1 103.1 335.4 103.9Q335.7 104.7 335.7 105.8L335.7 105.8L335.7 106.4L329.8 106.4Q329.8 107.1 330.1 107.7L330.1 107.7Q330.4 108.4 331.0 108.7Q331.6 109.0 332.3 109.0L332.3 109.0Q332.8 109.0 333.2 108.9Q333.6 108.7 333.9 108.4Q334.2 108.2 334.3 107.7L334.3 107.7L335.6 108.1Q335.4 108.7 334.9 109.2Q334.5 109.6 333.8 109.9Q333.2 110.2 332.3 110.2ZM329.8 105.2L329.8 105.2L334.4 105.2Q334.3 104.7 334.1 104.2L334.1 104.2Q333.9 103.6 333.4 103.2Q332.9 102.9 332.2 102.9Q331.4 102.9 330.9 103.2Q330.4 103.6 330.1 104.2L330.1 104.2Q329.8 104.7 329.8 105.2ZM339.2 110L337.9 110L337.9 101.8L339.2 101.8L339.2 103.1L339.3 103.1Q339.5 102.4 340.1 102.1Q340.7 101.7 341.4 101.7L341.4 101.7Q341.5 101.7 341.7 101.7Q341.9 101.7 342.1 101.7L342.1 101.7L342.1 103.0Q342.0 103.0 341.8 103.0Q341.5 103.0 341.3 103.0L341.3 103.0Q340.7 103.0 340.2 103.2Q339.8 103.5 339.5 103.9Q339.2 104.3 339.2 104.9L339.2 104.9L339.2 110Z "/></g><mask id="satori_om-id-2-2"><rect x="169" y="127" width="326" height="25" fill="#fff" mask="url(#satori_om-id)"/></mask><defs><clipPath id="satori_bc-id-2-2-0" clip-path="url(#satori_cp-id)"><path x="169" y="127" width="91" height="25" d="M181.5,127 h66 a12.5,12.5 0 0 1 12.5,12.5 v0 a12.5,12.5 0 0 1 -12.5,12.5 h-66 a12.5,12.5 0 0 1 -12.5,-12.5 v0 a12.5,12.5 0 0 1 12.5,-12.5"/></clipPath></defs><mask id="satori_om-id-2-2-0"><rect x="170" y="128" width="89" height="23" fill="#fff" mask="url(#satori_om-id)"/><path width="91" height="25" fill="none" stroke="#000" stroke-width="2" d="M172.661,130.661 A12.5,12.5 0 0 1 181.5,127 h66 a12.5,12.5 0 0 1 12.5,12.5 v0 a12.5,12.5 0 0 1 -12.5,12.5 h-66 a12.5,12.5 0 0 1 -12.5,-12.5 v0 A12.5,12.5 0 0 1 172.661,130.661"/></mask><path x="169" y="127" width="91" height="25" fill="rgba(80,40,220,0.18)" d="M181.5,127 h66 a12.5,12.5 0 0 1 12.5,12.5 v0 a12.5,12.5 0 0 1 -12.5,12.5 h-66 a12.5,12.5 0 0 1 -12.5,-12.5 v0 a12.5,12.5 0 0 1 12.5,-12.5" clip-path="url(#satori_cp-id)" mask="url(#satori_om-id)"/><path width="91" height="25" clip-path="url(#satori_bc-id-2-2-0)" fill="none" stroke="rgba(100,70,240,0.32)" stroke-width="2" d="M172.661,130.661 A12.5,12.5 0 0 1 181.5,127 h66 a12.5,12.5 0 0 1 12.5,12.5 v0 a12.5,12.5 0 0 1 -12.5,12.5 h-66 a12.5,12.5 0 0 1 -12.5,-12.5 v0 A12.5,12.5 0 0 1 172.661,130.661"/><g mask="url(#satori_om-id)" clip-path="url(#satori_cp-id)"><path fill="rgba(205,195,255,0.85)" d="M185.1 136.8L182.4 136.8L182.4 135.3L189.6 135.3L189.6 136.8L186.9 136.8L186.9 144L185.1 144L185.1 136.8ZM190.7 146.3L190.7 146.3L191.1 145.0L191.3 145.0Q191.7 145.1 192.0 145.1Q192.2 145.1 192.4 144.9Q192.6 144.7 192.6 144.4L192.6 144.4L192.7 144.0L190.2 137.4L192.1 137.4L193.2 140.8Q193.4 141.5 193.5 142.1L193.5 142.1Q193.5 142.4 193.6 142.6L193.6 142.6Q193.6 142.4 193.7 142.1L193.7 142.1Q193.8 141.5 194.1 140.8L194.1 140.8L195.2 137.4L197.0 137.4L194.3 144.8Q194.1 145.3 193.8 145.7Q193.4 146.1 193.0 146.3Q192.5 146.5 191.9 146.5L191.9 146.5Q191.5 146.5 191.2 146.4Q190.9 146.4 190.7 146.3ZM199.7 146.4L198.0 146.4L198.0 137.4L199.7 137.4L199.7 138.6L199.8 138.6Q199.9 138.3 200.1 138.0Q200.4 137.7 200.7 137.6Q201.1 137.4 201.7 137.4L201.7 137.4Q202.4 137.4 203.0 137.7Q203.6 138.1 204.0 138.9Q204.3 139.6 204.3 140.7L204.3 140.7Q204.3 141.8 204.0 142.6Q203.6 143.3 203.0 143.7Q202.4 144.1 201.7 144.1L201.7 144.1Q201.1 144.1 200.8 143.9Q200.4 143.7 200.1 143.5Q199.9 143.2 199.8 143.0L199.8 143.0L199.7 143.0L199.7 146.4ZM201.1 142.7L201.1 142.7Q201.6 142.7 201.9 142.4Q202.2 142.2 202.4 141.8Q202.5 141.3 202.5 140.7L202.5 140.7Q202.5 140.2 202.4 139.7Q202.2 139.3 201.9 139.0Q201.6 138.8 201.1 138.8L201.1 138.8Q200.7 138.8 200.3 139.0Q200.0 139.3 199.9 139.7Q199.7 140.1 199.7 140.7L199.7 140.7Q199.7 141.3 199.9 141.8Q200.0 142.2 200.4 142.5Q200.7 142.7 201.1 142.7ZM208.5 144.1L208.5 144.1Q207.5 144.1 206.8 143.7Q206.1 143.3 205.7 142.6Q205.3 141.8 205.3 140.8L205.3 140.8Q205.3 139.7 205.7 139.0Q206.0 138.2 206.8 137.8Q207.5 137.4 208.4 137.4L208.4 137.4Q209.1 137.4 209.6 137.6Q210.2 137.8 210.6 138.2Q211.0 138.6 211.3 139.2Q211.5 139.8 211.5 140.7L211.5 140.7L211.5 141.2L207.0 141.2Q207.0 141.7 207.2 142.0L207.2 142.0Q207.4 142.4 207.7 142.6Q208.1 142.8 208.5 142.8L208.5 142.8Q208.8 142.8 209.1 142.7Q209.4 142.6 209.5 142.5Q209.7 142.3 209.8 142.0L209.8 142.0L211.4 142.3Q211.2 142.9 210.8 143.3Q210.5 143.7 209.9 143.9Q209.3 144.1 208.5 144.1ZM207.0 140.1L207.0 140.1L209.8 140.1Q209.8 139.8 209.7 139.5L209.7 139.5Q209.5 139.1 209.2 138.9Q208.9 138.7 208.4 138.7L208.4 138.7Q208.0 138.7 207.7 138.9Q207.3 139.1 207.2 139.5L207.2 139.5Q207.1 139.7 207.0 140.1ZM215.9 144.1L215.9 144.1Q214.9 144.1 214.1 143.8Q213.3 143.5 212.9 142.9Q212.5 142.2 212.4 141.3L212.4 141.3L214.2 141.3Q214.2 141.7 214.4 142.0Q214.7 142.3 215.1 142.5Q215.4 142.6 215.9 142.6L215.9 142.6Q216.4 142.6 216.8 142.5Q217.1 142.3 217.3 142.1Q217.5 141.8 217.5 141.5L217.5 141.5Q217.5 141.2 217.3 141.0Q217.2 140.8 216.8 140.7Q216.5 140.5 216.0 140.4L216.0 140.4L215.0 140.2Q213.9 139.9 213.3 139.3Q212.7 138.7 212.7 137.8L212.7 137.8Q212.7 137.0 213.1 136.4Q213.5 135.8 214.3 135.5Q215.0 135.2 216.0 135.2L216.0 135.2Q216.9 135.2 217.6 135.5Q218.4 135.8 218.8 136.4Q219.2 137.0 219.2 137.8L219.2 137.8L217.5 137.8Q217.4 137.2 217.0 136.9Q216.6 136.7 215.9 136.7L215.9 136.7Q215.5 136.7 215.2 136.8Q214.8 136.9 214.7 137.1Q214.5 137.4 214.5 137.7L214.5 137.7Q214.5 138.0 214.7 138.2Q214.9 138.4 215.2 138.5Q215.5 138.7 215.9 138.8L215.9 138.8L216.7 139.0Q217.3 139.1 217.7 139.3Q218.2 139.5 218.6 139.8Q218.9 140.1 219.1 140.5Q219.3 141.0 219.3 141.5L219.3 141.5Q219.3 142.3 218.9 142.9Q218.5 143.5 217.8 143.8Q217.0 144.1 215.9 144.1ZM223.5 144.1L223.5 144.1Q222.5 144.1 221.8 143.7Q221.1 143.3 220.7 142.5Q220.3 141.8 220.3 140.8L220.3 140.8Q220.3 139.7 220.7 139.0Q221.1 138.2 221.8 137.8Q222.5 137.4 223.5 137.4L223.5 137.4Q224.1 137.4 224.6 137.5Q225.0 137.7 225.4 138.0Q225.8 138.2 226.1 138.6Q226.3 139.0 226.4 139.5L226.4 139.5L224.8 139.9Q224.7 139.6 224.6 139.4Q224.5 139.2 224.3 139.0Q224.2 138.9 224.0 138.8Q223.8 138.8 223.5 138.8L223.5 138.8Q223.0 138.8 222.7 139.0Q222.4 139.3 222.2 139.7Q222.1 140.2 222.1 140.7L222.1 140.7Q222.1 141.3 222.2 141.8Q222.4 142.2 222.7 142.5Q223.0 142.7 223.5 142.7L223.5 142.7Q223.8 142.7 224.0 142.7Q224.2 142.6 224.3 142.4Q224.5 142.3 224.6 142.1Q224.7 141.9 224.8 141.6L224.8 141.6L226.4 141.9Q226.3 142.4 226.1 142.8Q225.8 143.2 225.4 143.5Q225.1 143.8 224.6 144.0Q224.1 144.1 223.5 144.1ZM229.4 144L227.6 144L227.6 137.4L229.3 137.4L229.3 138.6L229.4 138.6Q229.6 138.0 230.0 137.7Q230.4 137.4 231.0 137.4L231.0 137.4Q231.1 137.4 231.3 137.4Q231.4 137.4 231.5 137.4L231.5 137.4L231.5 139.0Q231.4 138.9 231.2 138.9Q231.0 138.9 230.8 138.9L230.8 138.9Q230.4 138.9 230.1 139.1Q229.7 139.2 229.6 139.6Q229.4 139.9 229.4 140.3L229.4 140.3L229.4 144ZM234.3 144L232.5 144L232.5 137.4L234.3 137.4L234.3 144ZM233.4 136.6L233.4 136.6Q233.0 136.6 232.7 136.3Q232.4 136.1 232.4 135.7L232.4 135.7Q232.4 135.3 232.7 135.1Q233.0 134.8 233.4 134.8L233.4 134.8Q233.8 134.8 234.1 135.0Q234.3 135.3 234.3 135.7L234.3 135.7Q234.3 136.1 234.1 136.3Q233.8 136.6 233.4 136.6ZM237.5 146.4L235.8 146.4L235.8 137.4L237.5 137.4L237.5 138.6L237.6 138.6Q237.7 138.3 237.9 138.0Q238.1 137.7 238.5 137.6Q238.9 137.4 239.4 137.4L239.4 137.4Q240.2 137.4 240.8 137.7Q241.4 138.1 241.7 138.9Q242.1 139.6 242.1 140.7L242.1 140.7Q242.1 141.8 241.7 142.6Q241.4 143.3 240.8 143.7Q240.2 144.1 239.4 144.1L239.4 144.1Q238.9 144.1 238.5 143.9Q238.2 143.7 237.9 143.5Q237.7 143.2 237.6 143.0L237.6 143.0L237.5 143.0L237.5 146.4ZM238.9 142.7L238.9 142.7Q239.3 142.7 239.7 142.4Q240.0 142.2 240.1 141.8Q240.3 141.3 240.3 140.7L240.3 140.7Q240.3 140.2 240.1 139.7Q240.0 139.3 239.7 139.0Q239.3 138.8 238.9 138.8L238.9 138.8Q238.4 138.8 238.1 139.0Q237.8 139.3 237.6 139.7Q237.5 140.1 237.5 140.7L237.5 140.7Q237.5 141.3 237.6 141.8Q237.8 142.2 238.1 142.5Q238.4 142.7 238.9 142.7ZM245.3 137.4L246.6 137.4L246.6 138.8L245.3 138.8L245.3 142.1Q245.3 142.4 245.5 142.5Q245.6 142.7 245.9 142.7L245.9 142.7Q246.0 142.7 246.2 142.7Q246.4 142.6 246.5 142.6L246.5 142.6L246.8 143.9Q246.5 144.0 246.2 144.1Q245.9 144.1 245.6 144.1L245.6 144.1Q244.6 144.1 244.1 143.6Q243.6 143.1 243.6 142.2L243.6 142.2L243.6 138.8L242.7 138.8L242.7 137.4L243.6 137.4L243.6 135.9L245.3 135.9L245.3 137.4Z "/></g><defs><clipPath id="satori_bc-id-2-2-1" clip-path="url(#satori_cp-id)"><path x="268" y="127" width="90" height="25" d="M280.5,127 h65 a12.5,12.5 0 0 1 12.5,12.5 v0 a12.5,12.5 0 0 1 -12.5,12.5 h-65 a12.5,12.5 0 0 1 -12.5,-12.5 v0 a12.5,12.5 0 0 1 12.5,-12.5"/></clipPath></defs><mask id="satori_om-id-2-2-1"><rect x="269" y="128" width="88" height="23" fill="#fff" mask="url(#satori_om-id)"/><path width="90" height="25" fill="none" stroke="#000" stroke-width="2" d="M271.661,130.661 A12.5,12.5 0 0 1 280.5,127 h65 a12.5,12.5 0 0 1 12.5,12.5 v0 a12.5,12.5 0 0 1 -12.5,12.5 h-65 a12.5,12.5 0 0 1 -12.5,-12.5 v0 A12.5,12.5 0 0 1 271.661,130.661"/></mask><path x="268" y="127" width="90" height="25" fill="rgba(80,40,220,0.18)" d="M280.5,127 h65 a12.5,12.5 0 0 1 12.5,12.5 v0 a12.5,12.5 0 0 1 -12.5,12.5 h-65 a12.5,12.5 0 0 1 -12.5,-12.5 v0 a12.5,12.5 0 0 1 12.5,-12.5" clip-path="url(#satori_cp-id)" mask="url(#satori_om-id)"/><path width="90" height="25" clip-path="url(#satori_bc-id-2-2-1)" fill="none" stroke="rgba(100,70,240,0.32)" stroke-width="2" d="M271.661,130.661 A12.5,12.5 0 0 1 280.5,127 h65 a12.5,12.5 0 0 1 12.5,12.5 v0 a12.5,12.5 0 0 1 -12.5,12.5 h-65 a12.5,12.5 0 0 1 -12.5,-12.5 v0 A12.5,12.5 0 0 1 271.661,130.661"/><g mask="url(#satori_om-id)" clip-path="url(#satori_cp-id)"><path fill="rgba(205,195,255,0.85)" d="M284.3 144.1L284.3 144.1Q283.0 144.1 282.2 143.4Q281.4 142.7 281.4 141.4L281.4 141.4L281.4 140.9L283.2 140.9L283.2 141.4Q283.2 142.0 283.5 142.4Q283.8 142.7 284.3 142.7L284.3 142.7Q284.8 142.7 285.1 142.4Q285.5 142.0 285.5 141.4L285.5 141.4L285.5 135.3L287.2 135.3L287.2 141.4Q287.2 142.7 286.4 143.4Q285.7 144.1 284.3 144.1ZM290.6 144.1L290.6 144.1Q290.0 144.1 289.5 143.9Q289.0 143.7 288.7 143.3Q288.4 142.8 288.4 142.2L288.4 142.2Q288.4 141.6 288.6 141.3Q288.8 140.9 289.2 140.7Q289.5 140.4 290.0 140.3Q290.4 140.2 290.9 140.2L290.9 140.2Q291.5 140.1 291.8 140.0Q292.2 140.0 292.3 139.9Q292.5 139.8 292.5 139.6L292.5 139.6L292.5 139.5Q292.5 139.3 292.4 139.1Q292.2 138.9 292.0 138.8Q291.8 138.7 291.4 138.7L291.4 138.7Q291.1 138.7 290.9 138.8Q290.6 138.9 290.4 139.0Q290.3 139.2 290.2 139.4L290.2 139.4L288.6 139.2Q288.8 138.6 289.2 138.2Q289.6 137.8 290.1 137.6Q290.7 137.4 291.5 137.4L291.5 137.4Q292.0 137.4 292.5 137.5Q293.0 137.6 293.4 137.9Q293.8 138.1 294.0 138.6Q294.2 139.0 294.2 139.6L294.2 139.6L294.2 144L292.6 144L292.6 143.1L292.5 143.1Q292.3 143.4 292.1 143.6Q291.8 143.9 291.5 144.0Q291.1 144.1 290.6 144.1ZM291.1 142.9L291.1 142.9Q291.5 142.9 291.8 142.7Q292.1 142.6 292.3 142.3Q292.5 142.0 292.5 141.7L292.5 141.7L292.5 140.9Q292.4 141.0 292.3 141.1Q292.1 141.1 291.9 141.1Q291.7 141.2 291.5 141.2Q291.3 141.2 291.2 141.2L291.2 141.2Q290.9 141.3 290.6 141.4Q290.4 141.5 290.2 141.7Q290.1 141.8 290.1 142.1L290.1 142.1Q290.1 142.4 290.2 142.5Q290.4 142.7 290.6 142.8Q290.8 142.9 291.1 142.9ZM299.6 144L297.6 144L295.2 137.4L297.0 137.4L298.1 140.8Q298.3 141.5 298.5 142.1L298.5 142.1Q298.5 142.4 298.6 142.6L298.6 142.6Q298.7 142.4 298.7 142.1L298.7 142.1Q298.9 141.5 299.1 140.8L299.1 140.8L300.1 137.4L302.0 137.4L299.6 144ZM304.8 144.1L304.8 144.1Q304.1 144.1 303.6 143.9Q303.1 143.7 302.9 143.3Q302.6 142.8 302.6 142.2L302.6 142.2Q302.6 141.6 302.8 141.3Q303.0 140.9 303.3 140.7Q303.7 140.4 304.1 140.3Q304.6 140.2 305.0 140.2L305.0 140.2Q305.6 140.1 306.0 140.0Q306.3 140.0 306.5 139.9Q306.6 139.8 306.6 139.6L306.6 139.6L306.6 139.5Q306.6 139.3 306.5 139.1Q306.4 138.9 306.2 138.8Q305.9 138.7 305.6 138.7L305.6 138.7Q305.3 138.7 305.0 138.8Q304.8 138.9 304.6 139.0Q304.4 139.2 304.4 139.4L304.4 139.4L302.8 139.2Q302.9 138.6 303.3 138.2Q303.7 137.8 304.3 137.6Q304.9 137.4 305.6 137.4L305.6 137.4Q306.1 137.4 306.6 137.5Q307.1 137.6 307.5 137.9Q307.9 138.1 308.2 138.6Q308.4 139.0 308.4 139.6L308.4 139.6L308.4 144L306.7 144L306.7 143.1L306.7 143.1Q306.5 143.4 306.2 143.6Q306.0 143.9 305.6 144.0Q305.2 144.1 304.8 144.1ZM305.3 142.9L305.3 142.9Q305.7 142.9 306.0 142.7Q306.3 142.6 306.5 142.3Q306.6 142.0 306.6 141.7L306.6 141.7L306.6 140.9Q306.6 141.0 306.4 141.1Q306.3 141.1 306.1 141.1Q305.9 141.2 305.7 141.2Q305.5 141.2 305.3 141.2L305.3 141.2Q305.0 141.3 304.8 141.4Q304.5 141.5 304.4 141.7Q304.3 141.8 304.3 142.1L304.3 142.1Q304.3 142.4 304.4 142.5Q304.5 142.7 304.7 142.8Q305.0 142.9 305.3 142.9ZM313.1 144.1L313.1 144.1Q312.1 144.1 311.3 143.8Q310.5 143.5 310.1 142.9Q309.7 142.2 309.6 141.3L309.6 141.3L311.4 141.3Q311.4 141.7 311.6 142.0Q311.9 142.3 312.3 142.5Q312.6 142.6 313.1 142.6L313.1 142.6Q313.6 142.6 314.0 142.5Q314.3 142.3 314.5 142.1Q314.7 141.8 314.7 141.5L314.7 141.5Q314.7 141.2 314.5 141.0Q314.3 140.8 314.0 140.7Q313.7 140.5 313.2 140.4L313.2 140.4L312.2 140.2Q311.1 139.9 310.5 139.3Q309.9 138.7 309.9 137.8L309.9 137.8Q309.9 137.0 310.3 136.4Q310.7 135.8 311.5 135.5Q312.2 135.2 313.2 135.2L313.2 135.2Q314.1 135.2 314.8 135.5Q315.6 135.8 316.0 136.4Q316.4 137.0 316.4 137.8L316.4 137.8L314.7 137.8Q314.6 137.2 314.2 136.9Q313.8 136.7 313.1 136.7L313.1 136.7Q312.7 136.7 312.4 136.8Q312.0 136.9 311.9 137.1Q311.7 137.4 311.7 137.7L311.7 137.7Q311.7 138.0 311.9 138.2Q312.1 138.4 312.4 138.5Q312.7 138.7 313.1 138.8L313.1 138.8L313.9 139.0Q314.4 139.1 314.9 139.3Q315.4 139.5 315.8 139.8Q316.1 140.1 316.3 140.5Q316.5 141.0 316.5 141.5L316.5 141.5Q316.5 142.3 316.1 142.9Q315.7 143.5 314.9 143.8Q314.2 144.1 313.1 144.1ZM320.7 144.1L320.7 144.1Q319.7 144.1 319.0 143.7Q318.3 143.3 317.9 142.5Q317.5 141.8 317.5 140.8L317.5 140.8Q317.5 139.7 317.9 139.0Q318.3 138.2 319.0 137.8Q319.7 137.4 320.7 137.4L320.7 137.4Q321.3 137.4 321.8 137.5Q322.2 137.7 322.6 138.0Q323.0 138.2 323.3 138.6Q323.5 139.0 323.6 139.5L323.6 139.5L322.0 139.9Q321.9 139.6 321.8 139.4Q321.7 139.2 321.5 139.0Q321.4 138.9 321.2 138.8Q320.9 138.8 320.7 138.8L320.7 138.8Q320.2 138.8 319.9 139.0Q319.6 139.3 319.4 139.7Q319.3 140.2 319.3 140.7L319.3 140.7Q319.3 141.3 319.4 141.8Q319.6 142.2 319.9 142.5Q320.2 142.7 320.7 142.7L320.7 142.7Q320.9 142.7 321.2 142.7Q321.4 142.6 321.5 142.4Q321.7 142.3 321.8 142.1Q321.9 141.9 322.0 141.6L322.0 141.6L323.6 141.9Q323.5 142.4 323.3 142.8Q323.0 143.2 322.6 143.5Q322.3 143.8 321.8 144.0Q321.3 144.1 320.7 144.1ZM326.6 144L324.8 144L324.8 137.4L326.5 137.4L326.5 138.6L326.6 138.6Q326.8 138.0 327.2 137.7Q327.6 137.4 328.2 137.4L328.2 137.4Q328.3 137.4 328.5 137.4Q328.6 137.4 328.7 137.4L328.7 137.4L328.7 139.0Q328.6 138.9 328.4 138.9Q328.2 138.9 328.0 138.9L328.0 138.9Q327.6 138.9 327.2 139.1Q326.9 139.2 326.7 139.6Q326.6 139.9 326.6 140.3L326.6 140.3L326.6 144ZM331.5 144L329.7 144L329.7 137.4L331.5 137.4L331.5 144ZM330.6 136.6L330.6 136.6Q330.2 136.6 329.9 136.3Q329.6 136.1 329.6 135.7L329.6 135.7Q329.6 135.3 329.9 135.1Q330.2 134.8 330.6 134.8L330.6 134.8Q331.0 134.8 331.3 135.0Q331.5 135.3 331.5 135.7L331.5 135.7Q331.5 136.1 331.3 136.3Q331.0 136.6 330.6 136.6ZM334.7 146.4L332.9 146.4L332.9 137.4L334.7 137.4L334.7 138.6L334.8 138.6Q334.9 138.3 335.1 138.0Q335.3 137.7 335.7 137.6Q336.1 137.4 336.6 137.4L336.6 137.4Q337.4 137.4 338.0 137.7Q338.6 138.1 338.9 138.9Q339.3 139.6 339.3 140.7L339.3 140.7Q339.3 141.8 338.9 142.6Q338.6 143.3 338.0 143.7Q337.4 144.1 336.6 144.1L336.6 144.1Q336.1 144.1 335.7 143.9Q335.3 143.7 335.1 143.5Q334.9 143.2 334.8 143.0L334.8 143.0L334.7 143.0L334.7 146.4ZM336.1 142.7L336.1 142.7Q336.5 142.7 336.8 142.4Q337.2 142.2 337.3 141.8Q337.5 141.3 337.5 140.7L337.5 140.7Q337.5 140.2 337.3 139.7Q337.2 139.3 336.9 139.0Q336.5 138.8 336.1 138.8L336.1 138.8Q335.6 138.8 335.3 139.0Q335.0 139.3 334.8 139.7Q334.7 140.1 334.7 140.7L334.7 140.7Q334.7 141.3 334.8 141.8Q335 142.2 335.3 142.5Q335.6 142.7 336.1 142.7ZM342.5 137.4L343.8 137.4L343.8 138.8L342.5 138.8L342.5 142.1Q342.5 142.4 342.7 142.5Q342.8 142.7 343.1 142.7L343.1 142.7Q343.2 142.7 343.4 142.7Q343.6 142.6 343.7 142.6L343.7 142.6L343.9 143.9Q343.7 144.0 343.4 144.1Q343.1 144.1 342.8 144.1L342.8 144.1Q341.8 144.1 341.3 143.6Q340.8 143.1 340.8 142.2L340.8 142.2L340.8 138.8L339.9 138.8L339.9 137.4L340.8 137.4L340.8 135.9L342.5 135.9L342.5 137.4Z "/></g><defs><clipPath id="satori_bc-id-2-2-2" clip-path="url(#satori_cp-id)"><path x="366" y="127" width="68" height="25" d="M378.5,127 h43 a12.5,12.5 0 0 1 12.5,12.5 v0 a12.5,12.5 0 0 1 -12.5,12.5 h-43 a12.5,12.5 0 0 1 -12.5,-12.5 v0 a12.5,12.5 0 0 1 12.5,-12.5"/></clipPath></defs><mask id="satori_om-id-2-2-2"><rect x="367" y="128" width="66" height="23" fill="#fff" mask="url(#satori_om-id)"/><path width="68" height="25" fill="none" stroke="#000" stroke-width="2" d="M369.661,130.661 A12.5,12.5 0 0 1 378.5,127 h43 a12.5,12.5 0 0 1 12.5,12.5 v0 a12.5,12.5 0 0 1 -12.5,12.5 h-43 a12.5,12.5 0 0 1 -12.5,-12.5 v0 A12.5,12.5 0 0 1 369.661,130.661"/></mask><path x="366" y="127" width="68" height="25" fill="rgba(80,40,220,0.18)" d="M378.5,127 h43 a12.5,12.5 0 0 1 12.5,12.5 v0 a12.5,12.5 0 0 1 -12.5,12.5 h-43 a12.5,12.5 0 0 1 -12.5,-12.5 v0 a12.5,12.5 0 0 1 12.5,-12.5" clip-path="url(#satori_cp-id)" mask="url(#satori_om-id)"/><path width="68" height="25" clip-path="url(#satori_bc-id-2-2-2)" fill="none" stroke="rgba(100,70,240,0.32)" stroke-width="2" d="M369.661,130.661 A12.5,12.5 0 0 1 378.5,127 h43 a12.5,12.5 0 0 1 12.5,12.5 v0 a12.5,12.5 0 0 1 -12.5,12.5 h-43 a12.5,12.5 0 0 1 -12.5,-12.5 v0 A12.5,12.5 0 0 1 369.661,130.661"/><g mask="url(#satori_om-id)" clip-path="url(#satori_cp-id)"><path fill="rgba(205,195,255,0.85)" d="M381.6 144L379.8 144L379.8 135.3L383.2 135.3Q384.2 135.3 384.9 135.6Q385.6 136.0 386.0 136.7Q386.3 137.4 386.3 138.2L386.3 138.2Q386.3 139.1 385.9 139.7Q385.6 140.4 384.9 140.8Q384.2 141.1 383.2 141.1L383.2 141.1L381.6 141.1L381.6 144ZM381.6 136.7L381.6 139.7L382.9 139.7Q383.4 139.7 383.8 139.5Q384.1 139.3 384.3 139.0Q384.5 138.7 384.5 138.2Q384.5 137.8 384.3 137.4Q384.1 137.1 383.8 136.9Q383.4 136.7 382.9 136.7L382.9 136.7L381.6 136.7ZM387.5 146.3L387.5 146.3L387.9 145.0L388.1 145.0Q388.5 145.1 388.7 145.1Q389.0 145.1 389.2 144.9Q389.3 144.7 389.4 144.4L389.4 144.4L389.4 144.0L387.0 137.4L388.8 137.4L389.9 140.8Q390.1 141.5 390.3 142.1L390.3 142.1Q390.3 142.4 390.3 142.6L390.3 142.6Q390.4 142.4 390.4 142.1L390.4 142.1Q390.6 141.5 390.8 140.8L390.8 140.8L392.0 137.4L393.8 137.4L391.0 144.8Q390.8 145.3 390.5 145.7Q390.2 146.1 389.7 146.3Q389.3 146.5 388.6 146.5L388.6 146.5Q388.3 146.5 388.0 146.4Q387.7 146.4 387.5 146.3ZM396.8 137.4L398.0 137.4L398.0 138.8L396.8 138.8L396.8 142.1Q396.8 142.4 396.9 142.5Q397.1 142.7 397.4 142.7L397.4 142.7Q397.5 142.7 397.7 142.7Q397.8 142.6 397.9 142.6L397.9 142.6L398.2 143.9Q397.9 144.0 397.6 144.1Q397.3 144.1 397.0 144.1L397.0 144.1Q396.1 144.1 395.5 143.6Q395.0 143.1 395.0 142.2L395.0 142.2L395.0 138.8L394.1 138.8L394.1 137.4L395.0 137.4L395.0 135.9L396.8 135.9L396.8 137.4ZM400.9 140.2L400.9 140.2L400.9 144L399.1 144L399.1 135.3L400.9 135.3L400.9 138.7Q401.1 138.2 401.5 137.8L401.5 137.8Q402.0 137.4 402.9 137.4L402.9 137.4Q403.5 137.4 404.1 137.7Q404.6 138.0 404.8 138.5Q405.1 139.1 405.1 139.8L405.1 139.8L405.1 144L403.4 144L403.4 140.1Q403.4 139.5 403.0 139.2Q402.7 138.8 402.2 138.8L402.2 138.8Q401.8 138.8 401.5 139.0Q401.2 139.2 401.1 139.5Q400.9 139.8 400.9 140.2ZM409.5 144.1L409.5 144.1Q408.6 144.1 407.8 143.7Q407.1 143.3 406.7 142.5Q406.3 141.8 406.3 140.8L406.3 140.8Q406.3 139.7 406.7 139.0Q407.1 138.2 407.8 137.8Q408.6 137.4 409.5 137.4L409.5 137.4Q410.5 137.4 411.3 137.8Q412.0 138.2 412.4 139.0Q412.8 139.7 412.8 140.8L412.8 140.8Q412.8 141.8 412.4 142.5Q412.0 143.3 411.3 143.7Q410.5 144.1 409.5 144.1ZM409.5 142.7L409.5 142.7Q410.0 142.7 410.3 142.5Q410.6 142.2 410.8 141.8Q411.0 141.3 411.0 140.7L411.0 140.7Q411.0 140.2 410.8 139.7Q410.6 139.3 410.3 139.0Q410.0 138.8 409.5 138.8L409.5 138.8Q409.1 138.8 408.8 139.0Q408.4 139.3 408.3 139.7Q408.1 140.2 408.1 140.7L408.1 140.7Q408.1 141.3 408.3 141.8Q408.4 142.2 408.8 142.5Q409.1 142.7 409.5 142.7ZM415.7 140.2L415.7 140.2L415.7 144L414.0 144L414.0 137.4L415.6 137.4L415.7 138.8Q415.9 138.2 416.3 137.8L416.3 137.8Q416.9 137.4 417.7 137.4L417.7 137.4Q418.4 137.4 418.9 137.7Q419.4 138.0 419.7 138.5Q419.9 139.1 419.9 139.8L419.9 139.8L419.9 144L418.2 144L418.2 140.1Q418.2 139.5 417.9 139.2Q417.6 138.8 417.0 138.8L417.0 138.8Q416.6 138.8 416.3 139.0Q416.1 139.2 415.9 139.5Q415.7 139.8 415.7 140.2Z "/></g><defs><clipPath id="satori_bc-id-2-2-3" clip-path="url(#satori_cp-id)"><path x="442" y="127" width="53" height="25" d="M454.5,127 h28 a12.5,12.5 0 0 1 12.5,12.5 v0 a12.5,12.5 0 0 1 -12.5,12.5 h-28 a12.5,12.5 0 0 1 -12.5,-12.5 v0 a12.5,12.5 0 0 1 12.5,-12.5"/></clipPath></defs><mask id="satori_om-id-2-2-3"><rect x="443" y="128" width="51" height="23" fill="#fff" mask="url(#satori_om-id)"/><path width="53" height="25" fill="none" stroke="#000" stroke-width="2" d="M445.661,130.661 A12.5,12.5 0 0 1 454.5,127 h28 a12.5,12.5 0 0 1 12.5,12.5 v0 a12.5,12.5 0 0 1 -12.5,12.5 h-28 a12.5,12.5 0 0 1 -12.5,-12.5 v0 A12.5,12.5 0 0 1 445.661,130.661"/></mask><path x="442" y="127" width="53" height="25" fill="rgba(80,40,220,0.18)" d="M454.5,127 h28 a12.5,12.5 0 0 1 12.5,12.5 v0 a12.5,12.5 0 0 1 -12.5,12.5 h-28 a12.5,12.5 0 0 1 -12.5,-12.5 v0 a12.5,12.5 0 0 1 12.5,-12.5" clip-path="url(#satori_cp-id)" mask="url(#satori_om-id)"/><path width="53" height="25" clip-path="url(#satori_bc-id-2-2-3)" fill="none" stroke="rgba(100,70,240,0.32)" stroke-width="2" d="M445.661,130.661 A12.5,12.5 0 0 1 454.5,127 h28 a12.5,12.5 0 0 1 12.5,12.5 v0 a12.5,12.5 0 0 1 -12.5,12.5 h-28 a12.5,12.5 0 0 1 -12.5,-12.5 v0 A12.5,12.5 0 0 1 445.661,130.661"/><g mask="url(#satori_om-id)" clip-path="url(#satori_cp-id)"><path fill="rgba(205,195,255,0.85)" d="M457.6 144L455.8 144L455.8 135.3L459.2 135.3Q460.2 135.3 460.9 135.6Q461.6 136.0 462.0 136.6Q462.3 137.3 462.3 138.1Q462.3 139.0 461.9 139.6Q461.6 140.2 460.9 140.5L460.9 140.5Q460.8 140.6 460.8 140.6L460.8 140.6L462.6 144L460.6 144L459.0 140.9L457.6 140.9L457.6 144ZM457.6 136.7L457.6 139.4L458.9 139.4Q459.4 139.4 459.8 139.3Q460.1 139.1 460.3 138.8Q460.5 138.5 460.5 138.1L460.5 138.1Q460.5 137.7 460.3 137.4Q460.1 137.1 459.8 136.9Q459.4 136.7 458.9 136.7L458.9 136.7L457.6 136.7ZM465.9 144.1L465.9 144.1Q465.2 144.1 464.7 143.8Q464.2 143.5 463.9 142.9Q463.6 142.4 463.6 141.6L463.6 141.6L463.6 137.4L465.4 137.4L465.4 141.3Q465.4 141.9 465.7 142.3Q466.0 142.6 466.6 142.6L466.6 142.6Q466.9 142.6 467.2 142.5Q467.5 142.3 467.7 142.0Q467.8 141.7 467.8 141.2L467.8 141.2L467.8 137.4L469.6 137.4L469.6 144L467.9 144L467.9 142.6Q467.7 143.3 467.2 143.6L467.2 143.6Q466.7 144.1 465.9 144.1ZM473.7 144.1L473.7 144.1Q472.9 144.1 472.3 143.9Q471.7 143.7 471.3 143.2Q470.9 142.8 470.8 142.2L470.8 142.2L472.4 141.9Q472.6 142.4 472.9 142.6Q473.2 142.8 473.8 142.8L473.8 142.8Q474.3 142.8 474.5 142.6Q474.8 142.5 474.8 142.2L474.8 142.2Q474.8 141.9 474.6 141.7Q474.4 141.6 474.0 141.5L474.0 141.5L472.9 141.3Q471.9 141.1 471.4 140.6Q471.0 140.1 471.0 139.4L471.0 139.4Q471.0 138.8 471.3 138.3Q471.7 137.9 472.3 137.6Q472.9 137.4 473.7 137.4L473.7 137.4Q474.5 137.4 475.1 137.6Q475.6 137.8 476.0 138.2Q476.3 138.6 476.5 139.1L476.5 139.1L474.9 139.4Q474.8 139.1 474.5 138.8Q474.2 138.6 473.8 138.6L473.8 138.6Q473.3 138.6 473.0 138.8Q472.7 139.0 472.7 139.3L472.7 139.3Q472.7 139.5 472.9 139.7Q473.1 139.9 473.6 140.0L473.6 140.0L474.8 140.2Q475.7 140.4 476.2 140.8Q476.6 141.3 476.6 142.0L476.6 142.0Q476.6 142.6 476.3 143.1Q475.9 143.6 475.2 143.9Q474.6 144.1 473.7 144.1ZM479.8 137.4L481.1 137.4L481.1 138.8L479.8 138.8L479.8 142.1Q479.8 142.4 480.0 142.5Q480.1 142.7 480.4 142.7L480.4 142.7Q480.5 142.7 480.7 142.7Q480.9 142.6 481.0 142.6L481.0 142.6L481.3 143.9Q481.0 144.0 480.7 144.1Q480.4 144.1 480.1 144.1L480.1 144.1Q479.1 144.1 478.6 143.6Q478.1 143.1 478.1 142.2L478.1 142.2L478.1 138.8L477.2 138.8L477.2 137.4L478.1 137.4L478.1 135.9L479.8 135.9L479.8 137.4Z "/></g></svg>